HIERARCHY
ROOT Hips
{
	OFFSET 0.00000 0.00000 0.00000
	CHANNELS 6 Xposition Yposition Zposition Yrotation Zrotation Xrotation 
	JOINT Lumbar
	{
		OFFSET 0 0 0
		CHANNELS 3 Zrotation Xrotation Yrotation
		JOINT Neck
		{
			OFFSET 0.00 0.2701 0.00
			CHANNELS 3 Zrotation Xrotation Yrotation
			End Site
			{
				OFFSET 0.00 0.1379 0.00
			}
		}
		JOINT RightShoulder
		{
			OFFSET 0.0119 0.2289 0.1181
			CHANNELS 3 Zrotation Xrotation Yrotation
			JOINT RightElbow
			{
				OFFSET 0.00 -0.1475 0.00
				CHANNELS 2 Zrotation Yrotation
				JOINT RightWrist
				{
					OFFSET 0.00 -0.1605 0.00
					CHANNELS 2 Zrotation Xrotation
					End Site
					{
						OFFSET 0.0040 -0.1068 0.0006
					}
				}
			}
		}
		JOINT LeftShoulder
		{
			OFFSET 0.0119 0.2289 -0.1181
			CHANNELS 3 Zrotation Xrotation Yrotation
			JOINT LeftElbow
			{
				OFFSET 0.00 -0.1475 0.00
				CHANNELS 2 Zrotation Yrotation
				JOINT LeftWrist
				{
					OFFSET 0.00 -0.1605 0.00
					CHANNELS 2 Zrotation Xrotation
					End Site
					{
						OFFSET 0.0040 -0.1068 -0.0006
					}
				}
			}
		}
	}
	JOINT RightHip
	{
		OFFSET 0.0316 -0.0424 0.0458
		CHANNELS 3 Zrotation Xrotation Yrotation
		JOINT RightKnee
		{
			OFFSET 0.00 -0.2438 0.00
			CHANNELS 1 Zrotation
			JOINT RightAnkle
			{
				OFFSET 0.00 -0.2449 0.00
				CHANNELS 3 Zrotation Xrotation Yrotation
				End Site
				{
					OFFSET 0.1237 -0.0542 0.0051
				}
			}
		}
	}
	JOINT LeftHip
	{
		OFFSET 0.0316 -0.0424 -0.0458
		CHANNELS 3 Zrotation Xrotation Yrotation
		JOINT LeftKnee
		{
			OFFSET 0.00 -0.2438 0.00
			CHANNELS 1 Zrotation
			JOINT LeftAnkle
			{
				OFFSET 0.00 -0.2449 0.00
				CHANNELS 3 Zrotation Xrotation Yrotation
				End Site
				{
					OFFSET 0.1237 -0.0542 -0.0051
				}
			}
		}
	}
}
MOTION
Frames: 22
Frame Time: 0.02
0.16915 -0.14415 0.01888 -177.74051 -31.12592 0.89777 36.34762 1.39964 -0.85754 -6.85264 -1.91927 -0.82973 79.29298 -33.78163 47.77838 107.71031 83.48237 -8.67152 -4.881 22.81488 29.59354 -43.92666 94.01435 -87.15527 11.1621 0.81752 96.91399 -10.28115 -2.05989 -77.62432 -7.46562 -2.07342 -1.72331 97.94723 12.352 9.25728 -74.69184 -10.07159 3.96362 2.89239
0.16908 -0.14402 0.01892 -177.74593 -31.24221 0.87363 36.42286 1.37359 -0.86198 -6.40277 -1.83544 -0.82973 80.7988 -33.38818 47.67892 107.32358 84.41659 -9.723 -5.04562 22.93904 29.48592 -44.04331 93.9361 -87.15451 10.46196 0.84059 97.00823 -10.30752 -2.07685 -77.60707 -7.47045 -2.06366 -1.71837 98.05092 12.35538 9.26691 -74.67392 -10.07367 3.95495 2.88772
0.16902 -0.14391 0.01896 -177.74535 -31.35114 0.85651 36.4928 1.34575 -0.85559 -5.93204 -1.75684 -0.82973 81.99935 -33.15942 47.61139 106.89386 85.35891 -10.75176 -5.22197 23.04238 29.30803 -44.07324 93.84394 -87.12085 9.76918 0.96548 97.09883 -10.33252 -2.08542 -77.59029 -7.4738 -2.05803 -1.71513 98.15365 12.3403 9.26127 -74.65817 -10.07795 3.94742 2.88419
0.16895 -0.14379 0.01901 -177.74789 -31.46251 0.8364 36.56358 1.31946 -0.85444 -5.47075 -1.67658 -0.82973 83.32903 -32.84953 47.52465 106.4824 86.28764 -11.77142 -5.39037 23.15294 29.16363 -44.13972 93.7602 -87.10347 9.08823 1.03694 97.1904 -10.35675 -2.09644 -77.57343 -7.47777 -2.05072 -1.71126 98.25619 12.33348 9.26223 -74.64168 -10.08134 3.93953 2.88026
0.16888 -0.14366 0.01906 -177.74959 -31.5778 0.81561 36.64067 1.29028 -0.85124 -5.008 -1.59265 -0.82973 84.70381 -32.55364 47.4633 106.06133 87.26851 -12.86729 -5.57146 23.27661 29.01414 -44.22382 93.66689 -87.07963 8.3406 1.13524 97.28466 -10.38703 -2.11366 -77.55587 -7.48196 -2.04258 -1.70682 98.36096 12.32921 9.26719 -74.62418 -10.08408 3.93077 2.87568
0.16883 -0.14355 0.0191 -177.75128 -31.68304 0.79787 36.70351 1.26661 -0.84989 -4.54428 -1.51795 -0.82974 85.90911 -32.27287 47.35495 105.65607 88.13685 -13.79928 -5.72829 23.36649 28.85769 -44.24816 93.59019 -87.06026 7.73643 1.20461 97.37241 -10.4043 -2.11578 -77.53994 -7.48535 -2.03714 -1.70396 98.46091 12.31436 9.25905 -74.60929 -10.08876 3.92416 2.87278
0.16881 -0.1435 0.01915 -177.75482 -31.7635 0.78647 36.72804 1.25877 -0.85794 -4.07942 -1.4663 -0.82974 86.73637 -31.98957 47.10379 105.30211 88.71628 -14.30884 -5.81504 23.37007 28.70356 -44.13325 93.5665 -87.08048 7.50393 1.15023 97.44435 -10.38636 -2.0788 -77.52833 -7.4869 -2.03811 -1.70505 98.54916 12.27653 9.22062 -74.6012 -10.09829 3.92323 2.87426
0.16881 -0.14346 0.0192 -177.7584 -31.83388 0.77793 36.73853 1.25648 -0.86808 -3.61532 -1.42406 -0.82974 87.4001 -31.71838 46.80446 104.96823 89.17695 -14.651 -5.87674 23.3397 28.54417 -43.9599 93.55951 -87.10358 7.41952 1.06661 97.50964 -10.35538 -2.02689 -77.51837 -7.48771 -2.04164 -1.70765 98.63238 12.22829 9.169 -74.59566 -10.10969 3.92445 2.8774
0.1688 -0.14341 0.01925 -177.76158 -31.90815 0.7683 36.75567 1.25151 -0.87632 -3.15317 -1.37833 -0.82974 88.12848 -31.4459 46.52959 104.62905 89.67474 -15.05462 -5.94988 23.32289 28.38384 -43.80919 93.54249 -87.11252 7.28273 1.00952 97.57719 -10.33001 -1.98124 -77.50772 -7.48887 -2.044 -1.70954 98.71714 12.18318 9.12136 -74.58886 -10.12024 3.92469 2.8798
0.16879 -0.14337 0.0193 -177.76611 -31.98516 0.75806 36.77142 1.24715 -0.88812 -2.6799 -1.32937 -0.82974 88.88789 -31.16079 46.2446 104.2717 90.24256 -15.51825 -6.02341 23.31253 28.234 -43.67083 93.53503 -87.17257 7.08467 0.90164 97.6479 -10.30554 -1.93701 -77.49684 -7.48991 -2.04658 -1.71162 98.8052 12.14344 9.08079 -74.58253 -10.13093 3.92495 2.88222
0.16878 -0.14332 0.01934 -177.768 -32.05405 0.74965 36.78687 1.24289 -0.8932 -2.23111 -1.28939 -0.82975 89.5468 -30.90323 45.96943 103.95791 90.6381 -15.81842 -6.08978 23.28191 28.06341 -43.49556 93.51209 -87.12975 7.04746 0.88929 97.71041 -10.27658 -1.88706 -77.48682 -7.49105 -2.04921 -1.71363 98.88497 12.09126 9.02377 -74.57583 -10.14169 3.92567 2.88494
0.16875 -0.14328 0.01937 -177.76189 -32.10385 0.74585 36.80432 1.23729 -0.87882 -1.84255 -1.27128 -0.82975 89.97775 -30.71468 45.7277 103.75755 90.56931 -15.70013 -6.14431 23.19499 27.82472 -43.21932 93.44002 -86.78107 7.43413 1.16461 97.75271 -10.23425 -1.81888 -77.47874 -7.49265 -2.05147 -1.71525 98.94501 11.99872 8.91391 -74.56722 -10.1526 3.92724 2.8883
0.16871 -0.14323 0.01939 -177.75328 -32.14566 0.74371 36.82207 1.23166 -0.85775 -1.48014 -1.26197 -0.82975 90.31278 -30.5535 45.49841 103.60102 90.33406 -15.42473 -6.1921 23.09042 27.56788 -42.91081 93.35234 -86.33277 7.97454 1.53353 97.78684 -10.18857 -1.74657 -77.47147 -7.49438 -2.05362 -1.71672 98.99652 11.89558 8.78982 -74.55818 -10.16343 3.92918 2.89185
0.16868 -0.14318 0.01941 -177.74628 -32.19061 0.74059 36.84015 1.22622 -0.84004 -1.11042 -1.24902 -0.82975 90.68724 -30.38162 45.26676 103.42589 90.18702 -15.22671 -6.24175 22.99986 27.3277 -42.62637 93.27333 -85.94421 8.4341 1.84802 97.82421 -10.14721 -1.68031 -77.46383 -7.49608 -2.05571 -1.71814 99.05071 11.80316 8.6795 -74.54951 -10.17401 3.93089 2.89515
0.16865 -0.14313 0.01944 -177.73727 -32.2374 0.7385 36.85587 1.22023 -0.82099 -0.72096 -1.2349 -0.82975 91.07411 -30.20266 45.01931 103.24561 89.98442 -14.99769 -6.29563 22.88338 27.052 -42.3004 93.18806 -85.49508 8.9453 2.21142 97.86341 -10.0938 -1.59623 -77.45622 -7.49765 -2.05837 -1.7201 99.10983 11.68596 8.5386 -74.54019 -10.18583 3.93293 2.89922
0.16861 -0.14309 0.01946 -177.73187 -32.27843 0.73466 36.87663 1.2153 -0.8032 -0.37938 -1.22518 -0.82976 91.41362 -30.04508 44.80862 103.08654 89.85754 -14.798 -6.33941 22.81644 26.84575 -42.05369 93.11212 -85.14789 9.38337 2.49596 97.89684 -10.06456 -1.54807 -77.44874 -7.49952 -2.05976 -1.72089 99.15668 11.61734 8.4573 -74.53207 -10.19505 3.93436 2.90171
0.16859 -0.14304 0.01947 -177.73679 -32.30696 0.72529 36.91239 1.21316 -0.78991 -0.15895 -1.22557 -0.82976 91.65357 -29.93718 44.69456 102.9724 89.99817 -14.71904 -6.35715 22.89687 26.83857 -42.03732 93.06362 -85.11137 9.58254 2.53609 97.91733 -10.10571 -1.6038 -77.44141 -7.50212 -2.05782 -1.71841 99.17205 11.69133 8.55171 -74.52743 -10.19704 3.93394 2.89959
0.16858 -0.143 0.01948 -177.74546 -32.32971 0.71416 36.95305 1.21203 -0.77827 0.01319 -1.23008 -0.82976 91.84786 -29.85042 44.6178 102.8785 90.21785 -14.67525 -6.36498 23.02674 26.90134 -42.10148 93.02526 -85.18013 9.70205 2.4944 97.9321 -10.17083 -1.69521 -77.43419 -7.50501 -2.05458 -1.71477 99.17528 11.81355 8.70522 -74.52399 -10.19643 3.9329 2.8959
0.16856 -0.14296 0.0195 -177.75261 -32.35428 0.70403 36.99076 1.21051 -0.76619 0.20459 -1.2325 -0.82976 92.05975 -29.7555 44.52521 102.77719 90.3906 -14.61583 -6.37743 23.13015 26.93031 -42.12668 92.98366 -85.19732 9.85669 2.49279 97.94895 -10.22322 -1.76796 -77.42691 -7.5078 -2.05182 -1.71169 99.18397 11.90991 8.82673 -74.51997 -10.19704 3.93218 2.89305
0.16854 -0.14292 0.01951 -177.75896 -32.38217 0.69311 37.03156 1.20883 -0.75235 0.40705 -1.23587 -0.82976 92.28442 -29.65491 44.42764 102.67004 90.60475 -14.55088 -6.38945 23.25002 26.96737 -42.1606 92.93608 -85.22611 10.02082 2.48238 97.96793 -10.28331 -1.85093 -77.41968 -7.51051 -2.04947 -1.70846 99.19287 12.02253 8.96945 -74.51612 -10.19746 3.93132 2.88969
0.16852 -0.14288 0.01953 -177.76782 -32.40161 0.68338 37.06706 1.20759 -0.74295 0.57455 -1.23845 -0.82976 92.46923 -29.57144 44.34997 102.57911 90.75259 -14.50595 -6.39971 23.34728 27.00413 -42.19604 92.90315 -85.25785 10.14488 2.46944 97.98093 -10.33299 -1.9211 -77.41238 -7.51342 -2.04602 -1.70529 99.19824 12.11288 9.08219 -74.51216 -10.19767 3.93061 2.887
0.16854 -0.14287 0.01954 -177.78337 -32.40152 0.67745 37.08699 1.20836 -0.74277 0.664 -1.23517 -0.82977 92.58559 -29.52475 44.31205 102.52895 90.70737 -14.52523 -6.41087 23.373 27.02601 -42.21568 92.91185 -85.26538 10.17071 2.47059 97.9813 -10.34893 -1.94753 -77.40483 -7.51686 -2.03941 -1.70239 99.19939 12.12994 9.0982 -74.5078 -10.19774 3.9305 2.88656
